/* XPM */
static char *close_darker[] = {
/* columns rows colors chars-per-pixel */
"16 16 7 1 ",
"  c #222034",
". c #303050",
"X c #AC3232",
"o c #D95763",
"O c #777799",
"+ c #9999BB",
"@ c #B0B0D0",
/* pixels */
"@@@@@@@@@@@.....",
"@..........@@...",
"@............+..",
"@.............+.",
"@.............+.",
"@....o....o....+",
"@.....o..o.....+",
"@.......o......+",
"+      o       O",
"+     o  X     O",
"+    o    X    O",
"+              O",
"+              O",
"+              O",
"+              O",
"OOOOOOOOOOOOOOOO"
};
