/* XPM */
static char *max[] = {
/* columns rows colors chars-per-pixel */
"16 16 256 2 ",
"   c #BE2633",
".  c #732930",
"X  c #CB5CCF",
"o  c #E06F8B",
"O  c #964BA8",
"+  c #9E73EB",
"@  c #342A97",
"#  c #245AEF",
"$  c #1B2632",
"%  c #31A2F2",
"&  c #005784",
"*  c #697175",
"=  c #B2DCEF",
"-  c #2F484E",
";  c #14807E",
":  c #27C1A7",
">  c #215C2E",
",  c #44891A",
"<  c #A3CE27",
"1  c #475120",
"2  c #BCB330",
"3  c #F7E26B",
"4  c #EEB62F",
"5  c #493C2B",
"6  c #A46422",
"7  c #EB8931",
"8  c #F7B080",
"9  c #DA4200",
"0  c white",
"q  c gray80",
"w  c #9D9D9D",
"e  c #4A4A6A",
"r  c #224000",
"t  c #222244",
"y  c #4488CC",
"u  c #8888AA",
"i  c #666688",
"p  c #AAAACC",
"a  c #444466",
"s  c #555577",
"d  c #777799",
"f  c #222034",
"g  c #303050",
"h  c #A0A0C0",
"j  c #9090A0",
"k  c black",
"l  c black",
"z  c black",
"x  c black",
"c  c black",
"v  c black",
"b  c black",
"n  c black",
"m  c black",
"M  c black",
"N  c black",
"B  c black",
"V  c black",
"C  c black",
"Z  c black",
"A  c black",
"S  c black",
"D  c black",
"F  c black",
"G  c black",
"H  c black",
"J  c black",
"K  c black",
"L  c black",
"P  c black",
"I  c black",
"U  c black",
"Y  c black",
"T  c black",
"R  c black",
"E  c black",
"W  c black",
"Q  c black",
"!  c black",
"~  c black",
"^  c black",
"/  c black",
"(  c black",
")  c black",
"_  c black",
"`  c black",
"'  c black",
"]  c black",
"[  c black",
"{  c black",
"}  c black",
"|  c black",
" . c black",
".. c black",
"X. c black",
"o. c black",
"O. c black",
"+. c black",
"@. c black",
"#. c black",
"$. c black",
"%. c black",
"&. c black",
"*. c black",
"=. c black",
"-. c black",
";. c black",
":. c black",
">. c black",
",. c black",
"<. c black",
"1. c black",
"2. c black",
"3. c black",
"4. c black",
"5. c black",
"6. c black",
"7. c black",
"8. c black",
"9. c black",
"0. c black",
"q. c black",
"w. c black",
"e. c black",
"r. c black",
"t. c black",
"y. c black",
"u. c black",
"i. c black",
"p. c black",
"a. c black",
"s. c black",
"d. c black",
"f. c black",
"g. c black",
"h. c black",
"j. c black",
"k. c black",
"l. c black",
"z. c black",
"x. c black",
"c. c black",
"v. c black",
"b. c black",
"n. c black",
"m. c black",
"M. c black",
"N. c black",
"B. c black",
"V. c black",
"C. c black",
"Z. c black",
"A. c black",
"S. c black",
"D. c black",
"F. c black",
"G. c black",
"H. c black",
"J. c black",
"K. c black",
"L. c black",
"P. c black",
"I. c black",
"U. c black",
"Y. c black",
"T. c black",
"R. c black",
"E. c black",
"W. c black",
"Q. c black",
"!. c black",
"~. c black",
"^. c black",
"/. c black",
"(. c black",
"). c black",
"_. c black",
"`. c black",
"'. c black",
"]. c black",
"[. c black",
"{. c black",
"}. c black",
"|. c black",
" X c black",
".X c black",
"XX c black",
"oX c black",
"OX c black",
"+X c black",
"@X c black",
"#X c black",
"$X c black",
"%X c black",
"&X c black",
"*X c black",
"=X c black",
"-X c black",
";X c black",
":X c black",
">X c black",
",X c black",
"<X c black",
"1X c black",
"2X c black",
"3X c black",
"4X c black",
"5X c black",
"6X c black",
"7X c black",
"8X c black",
"9X c black",
"0X c black",
"qX c black",
"wX c black",
"eX c black",
"rX c black",
"tX c black",
"yX c black",
"uX c black",
"iX c black",
"pX c black",
"aX c black",
"sX c black",
"dX c black",
"fX c black",
"gX c black",
"hX c black",
"jX c black",
"kX c black",
"lX c black",
"zX c black",
"xX c black",
"cX c black",
"vX c black",
"bX c black",
"nX c black",
"mX c black",
"MX c black",
"NX c black",
"BX c black",
"VX c black",
"CX c black",
"ZX c black",
"AX c black",
"SX c black",
"DX c black",
"FX c black",
"GX c black",
"HX c black",
"JX c black",
"KX c black",
"LX c black",
"PX c black",
"IX c black",
"UX c black",
/* pixels */
"p p p p p p p p p p p p p p p p ",
"p g g g g g g g g g g g g g g w ",
"p g g g g g g g g g g g g g g w ",
"p g g g g g g g g g g g g g g w ",
"p g g g g g g g g g g g g g g w ",
"p g g g g % % % % % % g g g g w ",
"p g g g g % g g g g % g g g g w ",
"p g g g g % g g g g % g g g g w ",
"w f f f f % f f f f % f f f f u ",
"w f f f f % f f f f % f f f f u ",
"w f f f f % % % % % % f f f f u ",
"w f f f f f f f f f f f f f f u ",
"w f f f f f f f f f f f f f f u ",
"w f f f f f f f f f f f f f f u ",
"w f f f f f f f f f f f f f f u ",
"u u u u u u u u u u u u u u u u "
};
