/* XPM */
static char *stick_pressed[] = {
/* columns rows colors chars-per-pixel */
"20 20 5 1 ",
"  c black",
". c gray50",
"X c #FF6B00",
"o c #008012",
"O c #80FF91",
/* pixels */
"oooooooooooooooooooo",
"o                  o",
"o OOOOOOOOOOOOOOOO.o",
"o OOOOOOOOOOOOOOOO.o",
"o OOOOOOOOOOOOOOOO.o",
"o OOO          OOO.o",
"o OOO OOOOOOOOXOOO.o",
"o OOO OOOOOOOOXOOO.o",
"o OOO OOOOOOOOXOOO.o",
"o OOO OOO  OOOXOOO.o",
"o OOO OOO XOOOXOOO.o",
"o OOO OOOOOOOOXOOO.o",
"o OOO OOOOOOOOXOOO.o",
"o OOO OOOOOOOOXOOO.o",
"o OOOXXXXXXXXXXOOO.o",
"o OOOOOOOOOOOOOOOO.o",
"o OOOOOOOOOOOOOOOO.o",
"o OOOOOOOOOOOOOOOO.o",
"o..................o",
"oooooooooooooooooooo"
};
