/* XPM */
static char *close_unfocus[] = {
/* columns rows colors chars-per-pixel */
"16 16 6 1 ",
"  c #222222",
". c #323232",
"X c #747474",
"o c #797979",
"O c #9B9B9B",
"+ c #B2B2B2",
/* pixels */
"+++++++++++.....",
"+..........++...",
"+............O..",
"+.............O.",
"+.............O.",
"+....O....O....O",
"+.....O..O.....O",
"+.......O......O",
"O      O       o",
"O     O  X     o",
"O    O    X    o",
"O              o",
"O              o",
"O              o",
"O              o",
"oooooooooooooooo"
};
