/* XPM */
static char *close_pressed[] = {
/* columns rows colors chars-per-pixel */
"16 16 16 1 ",
"  c #4F4F2F",
". c #CFCFAF",
"X c #666644",
"o c #087D7D",
"O c #DDDFCB",
"+ c #888866",
"@ c #26A89C",
"# c #303050",
"$ c black",
"% c black",
"& c black",
"* c black",
"= c black",
"- c black",
"; c black",
": c black",
/* pixels */
"           #####",
" ..........  ###",
" ............X##",
" .............X#",
" .............X#",
" ....o....o....X",
" .....o..o.....X",
" .......o......X",
"XOOOOOOoOOOOOOO+",
"XOOOOOoOO@OOOOO+",
"XOOOOoOOOO@OOOO+",
"XOOOOOOOOOOOOOO+",
"XOOOOOOOOOOOOOO+",
"XOOOOOOOOOOOOOO+",
"XOOOOOOOOOOOOOO+",
"++++++++++++++++"
};
