/* XPM */
static char *icon_pressed[] = {
/* columns rows colors chars-per-pixel */
"16 16 7 1 ",
"  c #4F4F2F",
". c #666644",
"X c #777755",
"o c #661AAF",
"O c #9541CF",
"+ c #CFCFAF",
"@ c #DDDFCB",
/* pixels */
"                ",
" ++++++++++++++.",
" ++++++++++++++.",
" ++++++++++++++.",
" ++++++++++++++.",
" ++++++++++++++.",
" ++++++++++++++.",
" ++++++++++++++.",
".@@@@@@@@@@@@@@X",
".@@@@oooooO@@@@X",
".@@@@OOOOOO@@@@X",
".@@@@@@@@@@@@@@X",
".@@@@@@@@@@@@@@X",
".@@@@@@@@@@@@@@X",
".@@@@@@@@@@@@@@X",
"XXXXXXXXXXXXXXXX"
};
