/* XPM */
static char *new_icon[] = {
/* columns rows colors chars-per-pixel */
"20 17 2 1 ",
"  c #3A3A4D",
". c white",
/* pixels */
"                    ",
"        ....        ",
"       ..  .        ",
"       ..  ....     ",
"      .. ....       ",
"      .    ......   ",
"      .    .    .   ",
"      .   ..    .   ",
"      .. .. ....    ",
"   ..............   ",
"   ..............   ",
"   ..............   ",
"   ..............   ",
"                    ",
"                    ",
"                    ",
"                    "
};
