/* XPM */
static char *stick[] = {
/* columns rows colors chars-per-pixel */
"16 16 7 1 ",
"  c #222034",
". c #303050",
"X c #5FCDE4",
"o c #8888AA",
"O c #9999BB",
"+ c #B0B0D0",
"@ c #CBDBFC",
/* pixels */
".....+++++++++++",
"...++..........O",
"..+............O",
".+.............O",
".+.............O",
"+....@@@@@@....O",
"+....@....X....O",
"+....@.@@.X....O",
"O    @ XX X    o",
"O    @    X    o",
"O    XXXXXX    o",
"O              o",
"O              o",
"O              o",
"O              o",
"oooooooooooooooo"
};
