/* XPM */
static char *stick_pressed[] = {
/* columns rows colors chars-per-pixel */
"16 16 16 1 ",
"  c #CFCFAF",
". c #4F4F2F",
"X c #666644",
"o c #342403",
"O c #A0321B",
"+ c #DDDFCB",
"@ c #777755",
"# c #303050",
"$ c black",
"% c black",
"& c black",
"* c black",
"= c black",
"- c black",
"; c black",
": c black",
/* pixels */
"#####...........",
"###..          X",
"##.            X",
"#.             X",
"#.             X",
".    oooooo    X",
".    o    O    X",
".    o oo O    X",
"X++++o+OO+O++++@",
"X++++o++++O++++@",
"X++++OOOOOO++++@",
"X++++++++++++++@",
"X++++++++++++++@",
"X++++++++++++++@",
"X++++++++++++++@",
"@@@@@@@@@@@@@@@@"
};
